<svg xmlns="http://www.w3.org/2000/svg" width="640" height="460" fill="none" aria-labelledby="auth-title auth-desc" viewBox="0 0 640 460"><title>Agent authentication illustration</title><desc>Scattered identity points resolve into human and agent clusters under an access boundary.</desc><rect width="638" height="458" x="1" y="1" fill="#050505" stroke="#27272a" stroke-width="2" rx="8"/><path stroke="#3f3f46" stroke-dasharray="8 12" stroke-width="2" d="M320 74v312"/><g opacity=".9"><rect width="206" height="284" x="76" y="88" fill="#0a0a0b" stroke="#3b82f6" stroke-width="2" rx="8"/><text x="114" y="342" fill="#a1a1aa" font-family="JetBrains Mono, monospace" font-size="16">HUMAN</text></g><g opacity=".9"><rect width="206" height="284" x="358" y="88" fill="#0a0a0b" stroke="#22c55e" stroke-width="2" rx="8"/><text x="408" y="342" fill="#a1a1aa" font-family="JetBrains Mono, monospace" font-size="16">AGENT</text></g><g fill="#fafafa"><circle cx="124" cy="144" r="7" class="auth-dot human-dot"/><circle cx="178" cy="136" r="5" class="auth-dot human-dot"/><circle cx="222" cy="164" r="6" class="auth-dot human-dot"/><circle cx="144" cy="218" r="6" class="auth-dot human-dot"/><circle cx="214" cy="230" r="8" class="auth-dot human-dot"/><circle cx="176" cy="276" r="5" class="auth-dot human-dot"/><circle cx="412" cy="146" r="6" class="auth-dot agent-dot"/><circle cx="474" cy="142" r="7" class="auth-dot agent-dot"/><circle cx="512" cy="188" r="5" class="auth-dot agent-dot"/><circle cx="426" cy="226" r="7" class="auth-dot agent-dot"/><circle cx="492" cy="246" r="6" class="auth-dot agent-dot"/><circle cx="462" cy="290" r="5" class="auth-dot agent-dot"/></g><path stroke="#fafafa" stroke-dasharray="9 13" stroke-width="2" d="M108 402h424"/></svg>