<svg xmlns="http://www.w3.org/2000/svg" width="900" height="640" fill="none" aria-label="Static ZEXVRO node network background" viewBox="0 0 900 640"><path fill="#050505" d="M0 0h900v640H0z"/><path stroke="#fafafa" stroke-width="1.5" d="m146 132 186 118 144-86 180 168 94-148m-418 66-62 188 206-54 180-52M476 164v220m180-52 94 176M146 132l124 306" opacity=".34"/><g fill="#fafafa" opacity=".56"><rect width="44" height="44" x="124" y="110" rx="6"/><rect width="44" height="44" x="310" y="228" rx="6"/><rect width="44" height="44" x="454" y="142" rx="6"/><rect width="44" height="44" x="634" y="310" rx="6"/><rect width="44" height="44" x="728" y="162" rx="6"/><rect width="44" height="44" x="248" y="416" rx="6"/><rect width="44" height="44" x="454" y="362" rx="6"/><rect width="44" height="44" x="728" y="486" rx="6"/></g></svg>