<svg xmlns="http://www.w3.org/2000/svg" width="640" height="460" fill="none" aria-labelledby="privacy-title privacy-desc" viewBox="0 0 640 460"><title>Zero-knowledge privacy pool illustration</title><desc>A transaction route enters a shielded pool and exits as a verification mark while details remain hidden.</desc><rect width="638" height="458" x="1" y="1" fill="#050505" stroke="#27272a" stroke-width="2" rx="8"/><g stroke="#27272a" opacity=".32"><path d="M80 0v460M160 0v460M240 0v460M320 0v460M400 0v460M480 0v460M560 0v460M0 76h640M0 152h640M0 228h640M0 304h640M0 380h640"/></g><g stroke="#fafafa" stroke-linecap="square" stroke-width="2"><rect width="96" height="84" x="54" y="188" fill="#0a0a0b" rx="6"/><path d="M78 214h48m-48 24h34m-34 14h52"/><circle cx="150" cy="230" r="6" fill="#7c3aed"/></g><g stroke-width="2"><path fill="#111113" stroke="#fafafa" d="m320 92 136 52v96c0 78-46 124-136 154-90-30-136-76-136-154v-96z"/><path fill="#050505" stroke="#3f3f46" d="M246 166h148v118H246z"/><g stroke="#fafafa" opacity=".18"><path d="M270 190h100m-100 28h72m-72 28h112m-112 20h64"/><circle cx="382" cy="218" r="7"/><circle cx="382" cy="266" r="7"/></g></g><path stroke="#7c3aed" stroke-dasharray="8 12" stroke-linecap="square" stroke-width="3" d="M156 230c46 0 50-68 96-68h68c66 0 86 68 164 68"/><g transform="translate(492 180)"><rect width="96" height="96" fill="#0a0a0b" stroke="#fafafa" stroke-width="2" rx="6"/><path stroke="#7c3aed" stroke-linecap="square" stroke-width="6" d="m27 50 15 16 31-38"/><path stroke="#3f3f46" stroke-width="2" d="M24 76h52"/></g><g fill="#fafafa"><circle cx="222" cy="342" r="5"/><circle cx="258" cy="366" r="4"/><circle cx="302" cy="384" r="5"/><circle cx="348" cy="382" r="4"/><circle cx="392" cy="362" r="5"/><circle cx="430" cy="336" r="4"/></g></svg>