<svg width="640" height="460" viewBox="0 0 640 460" fill="none" xmlns="http://www.w3.org/2000/svg" role="img" aria-labelledby="nft-title nft-desc">
  <title id="nft-title">NFT service illustration</title>
  <desc id="nft-desc">A messy technical asset diagram simplifies into three clear product steps.</desc>
  <rect x="1" y="1" width="638" height="458" rx="8" fill="#050505" stroke="#27272A" stroke-width="2"/>
  <g id="nft-clutter" opacity=".8" stroke="#A1A1AA" stroke-width="2">
    <path d="M92 106h104v76H92zM162 220h142v62H162zM374 108h116v88H374zM418 256h128v70H418z"/>
    <path d="M196 144l178 8M304 252l114 38M162 182l64 38M490 196l-58 60"/>
    <path d="M112 132h62M112 154h42M190 246h86M402 134h58M444 284h72"/>
  </g>
  <g id="nft-clean" opacity=".15">
    <g transform="translate(88 128)">
      <rect width="132" height="132" rx="8" fill="#111113" stroke="#FAFAFA" stroke-width="2"/>
      <path d="M38 74l24 22 36-56" stroke="#FAFAFA" stroke-width="5"/>
      <text x="36" y="164" fill="#A1A1AA" font-family="JetBrains Mono, monospace" font-size="16">DEFINE</text>
    </g>
    <g transform="translate(254 128)">
      <rect width="132" height="132" rx="8" fill="#111113" stroke="#FAFAFA" stroke-width="2"/>
      <path d="M36 96h60M36 66h60M66 36v90" stroke="#FAFAFA" stroke-width="4"/>
      <text x="42" y="164" fill="#A1A1AA" font-family="JetBrains Mono, monospace" font-size="16">ISSUE</text>
    </g>
    <g transform="translate(420 128)">
      <rect width="132" height="132" rx="8" fill="#111113" stroke="#FAFAFA" stroke-width="2"/>
      <path d="M36 72h60M74 48l24 24-24 24" stroke="#FAFAFA" stroke-width="4"/>
      <text x="36" y="164" fill="#A1A1AA" font-family="JetBrains Mono, monospace" font-size="16">OPERATE</text>
    </g>
  </g>
</svg>
